<?xml version="1.0" encoding="utf-8"?>
<!-- Generator: Adobe Illustrator 16.0.0, SVG Export Plug-In . SVG Version: 6.00 Build 0)  -->
<!DOCTYPE svg PUBLIC "-//W3C//DTD SVG 1.1//EN" "http://www.w3.org/Graphics/SVG/1.1/DTD/svg11.dtd">
<svg version="1.1" id="Layer_1" xmlns="http://www.w3.org/2000/svg" xmlns:xlink="http://www.w3.org/1999/xlink" x="0px" y="0px"
	 width="37.144px" height="32.999px" viewBox="-0.318 -4.884 37.144 32.999" enable-background="new -0.318 -4.884 37.144 32.999"
	 xml:space="preserve">
<g>
	<g>
		<g>
			<g>
				<path fill="#06747F" stroke="#06747F" stroke-width="1.1774" stroke-miterlimit="10" d="M16.839-3.975
					c0.484,0,0.976,0.115,1.434,0.358c1.491,0.793,2.057,2.644,1.262,4.134L6.026,25.906c-0.793,1.49-2.646,2.055-4.135,1.263
					c-1.49-0.795-2.055-2.645-1.261-4.136L14.138-2.355C14.689-3.386,15.746-3.975,16.839-3.975z"/>
			</g>
			<g>
				<path fill="#06747F" stroke="#06747F" stroke-width="1.1774" stroke-miterlimit="10" d="M16.835-3.975
					c1.073,0,2.116,0.567,2.674,1.574l14.088,25.386c0.817,1.477,0.286,3.337-1.189,4.155c-1.475,0.818-3.337,0.288-4.156-1.189
					L14.163,0.563c-0.818-1.475-0.286-3.335,1.19-4.155C15.824-3.852,16.333-3.975,16.835-3.975z"/>
			</g>
		</g>
	</g>
	<g>
		<g>
			<g>
				<g>
					<path fill="#FFFFFF" d="M19.124-4.884c0.485,0,0.978,0.116,1.434,0.36c1.491,0.793,2.056,2.643,1.263,4.134L8.311,24.997
						c-0.793,1.491-2.645,2.055-4.133,1.263c-1.492-0.794-2.057-2.646-1.263-4.135L16.424-3.262
						C16.972-4.295,18.03-4.884,19.124-4.884z"/>
					<path fill="#17A2B8" d="M19.124-4.884c0,0,0.074,0.009,0.219,0.025c0.141,0.031,0.365,0.012,0.63,0.105
						c0.529,0.154,1.328,0.55,1.859,1.481c0.227,0.474,0.4,1.047,0.358,1.688c-0.048,0.642-0.358,1.278-0.701,1.917
						c-0.665,1.301-1.414,2.768-2.232,4.369c-1.616,3.212-3.502,6.959-5.523,10.975c-1.007,2.009-2.053,4.082-3.14,6.177
						c-0.544,1.046-1.093,2.101-1.644,3.16l-0.104,0.198l-0.026,0.049l-0.06,0.097l-0.062,0.094l-0.248,0.373
						c-0.255,0.273-0.527,0.584-0.829,0.752c-0.584,0.406-1.298,0.628-2.012,0.615c-0.713,0.008-1.431-0.211-2.011-0.622
						c-0.233-0.125-0.533-0.432-0.793-0.706c-0.199-0.296-0.418-0.579-0.531-0.919c-0.278-0.648-0.354-1.386-0.2-2.074
						c0.042-0.354,0.214-0.666,0.346-0.988l0.427-0.779c1.13-2.071,2.263-4.099,3.368-6.056c2.202-3.919,4.257-7.577,6.018-10.712
						c1.757-3.138,3.193-5.766,4.185-7.616c0.521-0.934,1.33-1.334,1.856-1.485c0.272-0.067,0.485-0.105,0.631-0.105
						C19.049-4.879,19.124-4.884,19.124-4.884z M19.124-4.884c0,0-0.075,0.005-0.22,0.016c-0.146,0.002-0.357,0.042-0.629,0.111
						c-0.524,0.156-1.323,0.56-1.833,1.493c-0.98,1.851-2.357,4.514-3.979,7.723c-1.616,3.212-3.502,6.96-5.522,10.975
						c-1.005,2.011-2.054,4.083-3.141,6.177l-0.403,0.787c-0.077,0.23-0.201,0.444-0.219,0.689
						c-0.105,0.471-0.047,0.978,0.151,1.419c0.072,0.235,0.237,0.422,0.363,0.625c0.167,0.144,0.252,0.306,0.549,0.474
						c0.396,0.281,0.885,0.419,1.365,0.41c0.483,0.019,0.972-0.129,1.369-0.404c0.23-0.122,0.339-0.287,0.515-0.426l0.251-0.372
						l0.063-0.093c-0.003,0.007,0.051-0.08,0.001,0.003l0.026-0.049l0.106-0.197c0.57-1.049,1.139-2.093,1.702-3.129
						c1.13-2.072,2.266-4.098,3.369-6.056c2.201-3.919,4.256-7.577,6.017-10.712c0.871-1.573,1.669-3.015,2.377-4.292
						c0.359-0.636,0.688-1.24,0.738-1.875c0.048-0.632-0.119-1.199-0.338-1.671c-0.517-0.926-1.31-1.33-1.835-1.488
						c-0.263-0.096-0.488-0.079-0.629-0.111C19.198-4.874,19.124-4.884,19.124-4.884z"/>
				</g>
			</g>
			<g>
				<g>
					<path fill="#FFFFFF" d="M19.119-4.884c1.075,0,2.117,0.567,2.675,1.574l14.088,25.388c0.818,1.477,0.286,3.337-1.19,4.156
						c-1.474,0.816-3.336,0.286-4.154-1.19L16.451-0.344c-0.82-1.474-0.287-3.335,1.189-4.155
						C18.108-4.759,18.618-4.884,19.119-4.884z"/>
					<path fill="#17A2B8" d="M19.119-4.884c0,0,0.075,0.004,0.221,0.014c0.146,0.001,0.362,0.038,0.636,0.108
						c0.533,0.149,1.342,0.559,1.863,1.502c1.029,1.845,2.523,4.466,4.346,7.596c1.828,3.126,3.962,6.774,6.247,10.682
						c1.146,1.952,2.325,3.973,3.499,6.038l0.466,0.826c0.117,0.284,0.259,0.501,0.335,0.915c0.175,0.745,0.104,1.449-0.171,2.117
						c-0.258,0.66-0.717,1.26-1.321,1.646l-0.222,0.153c-0.042,0.022,0.015,0.002-0.108,0.061l-0.052,0.022l-0.104,0.045
						l-0.42,0.179c-0.374,0.095-0.769,0.195-1.118,0.172c-1.444,0.067-2.842-1.005-3.355-2.187
						c-0.574-1.057-1.146-2.108-1.713-3.152c-1.132-2.09-2.224-4.158-3.272-6.164c-2.106-4.008-4.071-7.748-5.756-10.954
						c-0.852-1.598-1.633-3.063-2.325-4.361c-0.356-0.64-0.68-1.268-0.734-1.918c-0.057-0.646,0.119-1.226,0.343-1.703
						c0.522-0.947,1.334-1.34,1.861-1.504c0.268-0.088,0.493-0.076,0.636-0.105C19.044-4.874,19.119-4.884,19.119-4.884z
						 M19.119-4.884c0,0-0.075,0.01-0.22,0.029c-0.142,0.031-0.366,0.02-0.633,0.11c-0.527,0.17-1.327,0.568-1.836,1.511
						c-0.218,0.475-0.386,1.049-0.324,1.684c0.057,0.635,0.399,1.246,0.772,1.876c0.735,1.274,1.564,2.712,2.47,4.28
						c1.828,3.126,3.962,6.773,6.247,10.681c1.147,1.951,2.324,3.974,3.498,6.039c0.586,1.034,1.176,2.076,1.768,3.122
						c0.148,0.288,0.295,0.477,0.431,0.675c0.171,0.168,0.324,0.37,0.545,0.481c0.396,0.286,0.896,0.414,1.378,0.41
						c0.26,0.021,0.45-0.051,0.667-0.072l0.414-0.172l0.104-0.045l0.053-0.021c-0.088,0.045-0.003-0.003-0.013,0l0.149-0.105
						c0.419-0.255,0.73-0.662,0.911-1.112c0.114-0.221,0.134-0.468,0.188-0.706c-0.009-0.24,0.017-0.502-0.046-0.698
						c0.006-0.188-0.151-0.499-0.258-0.768l-0.396-0.737c-1.132-2.089-2.223-4.158-3.272-6.164
						c-2.107-4.007-4.073-7.747-5.759-10.952c-1.69-3.203-3.125-5.857-4.146-7.707c-0.509-0.94-1.309-1.356-1.839-1.51
						c-0.272-0.072-0.487-0.111-0.634-0.114C19.194-4.878,19.119-4.884,19.119-4.884z"/>
				</g>
			</g>
		</g>
	</g>
</g>
</svg>
