<?xml version="1.0" encoding="utf-8"?>
<!-- Generator: Adobe Illustrator 16.0.0, SVG Export Plug-In . SVG Version: 6.00 Build 0)  -->
<!DOCTYPE svg PUBLIC "-//W3C//DTD SVG 1.1//EN" "http://www.w3.org/Graphics/SVG/1.1/DTD/svg11.dtd">
<svg version="1.1" id="Layer_1" xmlns="http://www.w3.org/2000/svg" xmlns:xlink="http://www.w3.org/1999/xlink" x="0px" y="0px"
	 width="32.999px" height="37.144px" viewBox="2.063 -7.237 32.999 37.144" enable-background="new 2.063 -7.237 32.999 37.144"
	 xml:space="preserve">
<g>
	<g>
		<g>
			<g>
				<path fill="#06747F" stroke="#06747F" stroke-width="1.1774" stroke-miterlimit="10" d="M2.972,12.751
					c0-0.484,0.115-0.976,0.358-1.434c0.793-1.491,2.644-2.057,4.134-1.262l25.388,13.508c1.49,0.793,2.055,2.646,1.263,4.135
					c-0.795,1.49-2.645,2.055-4.136,1.261L4.592,15.451C3.56,14.901,2.972,13.844,2.972,12.751z"/>
			</g>
			<g>
				<path fill="#06747F" stroke="#06747F" stroke-width="1.1774" stroke-miterlimit="10" d="M2.972,12.755
					c0-1.073,0.567-2.116,1.574-2.674L29.931-4.007c1.477-0.817,3.337-0.286,4.155,1.189c0.818,1.475,0.288,3.337-1.189,4.156
					L7.51,15.426c-1.475,0.818-3.335,0.286-4.155-1.189C3.095,13.766,2.972,13.257,2.972,12.755z"/>
			</g>
		</g>
	</g>
	<g>
		<g>
			<g>
				<g>
					<path fill="#FFFFFF" d="M2.063,10.466c0-0.485,0.116-0.978,0.36-1.434C3.217,7.541,5.066,6.977,6.557,7.77l25.387,13.509
						c1.491,0.794,2.055,2.645,1.263,4.134c-0.794,1.491-2.646,2.057-4.135,1.263L3.685,13.166
						C2.652,12.617,2.063,11.56,2.063,10.466z"/>
					<path fill="#17A2B8" d="M2.063,10.466c0,0,0.009-0.074,0.025-0.219C2.119,10.107,2.1,9.882,2.194,9.618
						c0.154-0.53,0.55-1.329,1.481-1.86c0.474-0.226,1.047-0.4,1.688-0.358c0.642,0.047,1.278,0.359,1.917,0.701
						c1.301,0.665,2.768,1.415,4.369,2.232c3.212,1.616,6.959,3.502,10.975,5.523c2.009,1.007,4.082,2.053,6.177,3.14
						c1.046,0.545,2.101,1.093,3.16,1.645l0.198,0.104l0.049,0.026l0.097,0.061l0.094,0.062l0.374,0.248
						c0.272,0.255,0.583,0.527,0.751,0.829c0.406,0.584,0.628,1.298,0.615,2.012c0.008,0.714-0.21,1.431-0.622,2.011
						c-0.125,0.233-0.432,0.533-0.706,0.793c-0.296,0.199-0.579,0.419-0.919,0.531c-0.648,0.278-1.386,0.354-2.073,0.201
						c-0.354-0.042-0.667-0.215-0.989-0.347l-0.78-0.427c-2.07-1.13-4.098-2.263-6.055-3.368c-3.919-2.202-7.577-4.257-10.712-6.019
						c-3.138-1.757-5.766-3.192-7.616-4.184c-0.934-0.521-1.334-1.33-1.485-1.856c-0.067-0.273-0.105-0.486-0.105-0.631
						C2.068,10.541,2.063,10.466,2.063,10.466z M2.063,10.466c0,0,0.005,0.075,0.016,0.219c0.002,0.146,0.042,0.358,0.111,0.629
						c0.156,0.525,0.56,1.324,1.493,1.833c1.851,0.981,4.514,2.358,7.723,3.979c3.212,1.616,6.96,3.502,10.975,5.521
						c2.011,1.006,4.083,2.055,6.177,3.141l0.787,0.403c0.23,0.076,0.444,0.2,0.689,0.219c0.471,0.105,0.978,0.047,1.419-0.151
						c0.235-0.072,0.422-0.238,0.625-0.364c0.144-0.166,0.307-0.251,0.474-0.549c0.281-0.396,0.419-0.885,0.41-1.365
						c0.019-0.482-0.129-0.972-0.404-1.369c-0.122-0.229-0.287-0.339-0.426-0.515l-0.372-0.251l-0.093-0.063
						c0.007,0.003-0.08-0.051,0.003-0.001l-0.049-0.027l-0.197-0.105c-1.049-0.57-2.093-1.139-3.129-1.703
						c-2.071-1.129-4.098-2.265-6.056-3.368c-3.919-2.201-7.577-4.256-10.712-6.017C9.955,9.691,8.513,8.892,7.236,8.185
						C6.6,7.825,5.995,7.497,5.361,7.447C4.729,7.399,4.161,7.565,3.69,7.784C2.764,8.301,2.36,9.094,2.202,9.619
						c-0.096,0.263-0.079,0.488-0.111,0.628C2.073,10.392,2.063,10.466,2.063,10.466z"/>
				</g>
			</g>
			<g>
				<g>
					<path fill="#FFFFFF" d="M2.063,10.471c0-1.075,0.567-2.117,1.574-2.675L29.025-6.292c1.477-0.818,3.337-0.286,4.156,1.19
						c0.816,1.474,0.286,3.336-1.19,4.154L6.603,13.139c-1.474,0.82-3.335,0.287-4.155-1.189
						C2.188,11.482,2.063,10.972,2.063,10.471z"/>
					<path fill="#17A2B8" d="M2.063,10.471c0,0,0.004-0.075,0.014-0.221c0.001-0.146,0.038-0.361,0.108-0.635
						c0.149-0.533,0.559-1.342,1.502-1.864c1.845-1.029,4.466-2.522,7.596-4.345c3.126-1.829,6.773-3.961,10.682-6.247
						c1.952-1.146,3.973-2.325,6.038-3.499l0.826-0.466c0.284-0.117,0.501-0.258,0.915-0.335c0.745-0.175,1.449-0.103,2.117,0.171
						c0.66,0.258,1.26,0.716,1.646,1.321l0.153,0.221c0.022,0.042,0.002-0.015,0.061,0.108l0.022,0.052l0.045,0.104l0.179,0.42
						c0.095,0.375,0.195,0.769,0.172,1.118c0.067,1.445-1.005,2.842-2.187,3.355c-1.057,0.574-2.108,1.146-3.152,1.713
						c-2.09,1.131-4.158,2.224-6.164,3.272c-4.008,2.106-7.748,4.071-10.954,5.756c-1.598,0.852-3.063,1.633-4.361,2.325
						c-0.64,0.357-1.268,0.681-1.918,0.735c-0.646,0.057-1.226-0.119-1.703-0.343c-0.947-0.522-1.34-1.333-1.504-1.861
						c-0.088-0.268-0.076-0.494-0.105-0.636C2.073,10.546,2.063,10.471,2.063,10.471z M2.063,10.471c0,0,0.01,0.075,0.029,0.22
						c0.031,0.142,0.02,0.366,0.11,0.632c0.17,0.528,0.568,1.328,1.511,1.837c0.475,0.218,1.049,0.385,1.684,0.324
						c0.635-0.057,1.246-0.399,1.876-0.772c1.274-0.735,2.712-1.564,4.28-2.469c3.126-1.829,6.774-3.962,10.681-6.248
						c1.951-1.147,3.974-2.323,6.039-3.498c1.034-0.585,2.076-1.176,3.122-1.768c0.288-0.147,0.477-0.295,0.675-0.431
						c0.168-0.171,0.37-0.324,0.481-0.544c0.286-0.397,0.414-0.896,0.41-1.378c0.021-0.259-0.051-0.45-0.072-0.667l-0.172-0.413
						l-0.045-0.104l-0.021-0.052c0.045,0.087-0.003,0.003,0,0.013l-0.105-0.15c-0.255-0.419-0.662-0.73-1.112-0.911
						c-0.221-0.114-0.468-0.134-0.706-0.188c-0.24,0.008-0.502-0.017-0.698,0.045c-0.188-0.005-0.499,0.152-0.768,0.258
						l-0.737,0.396c-2.089,1.132-4.158,2.222-6.164,3.272c-4.007,2.107-7.747,4.073-10.952,5.758
						C8.206,5.323,5.552,6.757,3.702,7.778c-0.94,0.509-1.356,1.309-1.51,1.839C2.12,9.889,2.081,10.104,2.079,10.25
						C2.069,10.396,2.063,10.471,2.063,10.471z"/>
				</g>
			</g>
		</g>
	</g>
</g>
</svg>
